<svg width="31" height="31" viewBox="0 0 31 31" fill="none" xmlns="http://www.w3.org/2000/svg">
<path d="M13.6715 28.348L13.5201 28.2088L2.9123 18.3578C1.05352 16.6322 0 14.2103 0 11.6734V11.4736C0 7.21113 3.02734 3.5541 7.21719 2.75488C9.60273 2.29472 12.0428 2.8457 13.9863 4.21406C14.5312 4.60156 15.0398 5.0496 15.5 5.56425C15.7543 5.27363 16.0268 5.00722 16.3174 4.75898C16.5414 4.56523 16.7715 4.38359 17.0137 4.21406C18.9572 2.8457 21.3973 2.29472 23.7828 2.74882C27.9727 3.54804 31 7.21113 31 11.4736V11.6734C31 14.2103 29.9465 16.6322 28.0877 18.3578L17.4799 28.2088L17.3285 28.348C16.832 28.8082 16.1781 29.0686 15.5 29.0686C14.8219 29.0686 14.168 28.8143 13.6715 28.348ZM14.4768 8.77929C14.4525 8.76113 14.4344 8.73691 14.4162 8.71269L13.3385 7.50175L13.3324 7.4957C11.9338 5.92753 9.8207 5.21308 7.76211 5.60663C4.94062 6.1455 2.90625 8.6037 2.90625 11.4736V11.6734C2.90625 13.399 3.62676 15.0519 4.89219 16.2266L15.5 26.0775L26.1078 16.2266C27.3732 15.0519 28.0938 13.399 28.0938 11.6734V11.4736C28.0938 8.60976 26.0594 6.1455 23.2439 5.60663C21.1854 5.21308 19.0662 5.93359 17.6736 7.4957C17.6736 7.4957 17.6736 7.4957 17.6676 7.50175C17.6615 7.50781 17.6676 7.50175 17.6615 7.50781L16.5838 8.71874C16.5656 8.74296 16.5414 8.76113 16.5232 8.78535C16.2508 9.05781 15.8814 9.20917 15.5 9.20917C15.1186 9.20917 14.7492 9.05781 14.4768 8.78535V8.77929Z" fill="black"/>
</svg>
