<svg width="26" height="31" viewBox="0 0 26 31" fill="none" xmlns="http://www.w3.org/2000/svg">
<g clip-path="url(#clip0_2208_270)">
<path d="M21.125 12.5625C21.125 14.8934 20.3684 17.0465 19.0938 18.7934L25.5227 25.2273C26.1574 25.8621 26.1574 26.893 25.5227 27.5277C24.8879 28.1625 23.857 28.1625 23.2223 27.5277L16.7934 21.0938C15.0465 22.3734 12.8934 23.125 10.5625 23.125C4.72773 23.125 0 18.3973 0 12.5625C0 6.72773 4.72773 2 10.5625 2C16.3973 2 21.125 6.72773 21.125 12.5625ZM10.5625 19.875C11.5228 19.875 12.4737 19.6859 13.3609 19.3184C14.2481 18.9509 15.0542 18.4122 15.7332 17.7332C16.4122 17.0542 16.9509 16.2481 17.3184 15.3609C17.6859 14.4737 17.875 13.5228 17.875 12.5625C17.875 11.6022 17.6859 10.6513 17.3184 9.76413C16.9509 8.87693 16.4122 8.07081 15.7332 7.39178C15.0542 6.71275 14.2481 6.17412 13.3609 5.80663C12.4737 5.43914 11.5228 5.25 10.5625 5.25C9.60221 5.25 8.65132 5.43914 7.76413 5.80663C6.87693 6.17412 6.07081 6.71275 5.39178 7.39178C4.71275 8.07081 4.17412 8.87693 3.80663 9.76413C3.43914 10.6513 3.25 11.6022 3.25 12.5625C3.25 13.5228 3.43914 14.4737 3.80663 15.3609C4.17412 16.2481 4.71275 17.0542 5.39178 17.7332C6.07081 18.4122 6.87693 18.9509 7.76413 19.3184C8.65132 19.6859 9.60221 19.875 10.5625 19.875Z" fill="black"/>
</g>
<defs>
<clipPath id="clip0_2208_270">
<rect width="26" height="26" fill="white" transform="translate(0 2)"/>
</clipPath>
</defs>
</svg>
